<?xml version="1.0" encoding="UTF-8"?>
<!DOCTYPE svg PUBLIC "-//W3C//DTD SVG 1.1//EN" "http://www.w3.org/Graphics/SVG/1.1/DTD/svg11.dtd">
<svg xmlns="http://www.w3.org/2000/svg" version="1.1" width="58px" height="54px" style="shape-rendering:geometricPrecision; text-rendering:geometricPrecision; image-rendering:optimizeQuality; fill-rule:evenodd; clip-rule:evenodd" xmlns:xlink="http://www.w3.org/1999/xlink">
<g><path style="opacity:1" fill="#022d2d" d="M -0.5,-0.5 C 18.8333,-0.5 38.1667,-0.5 57.5,-0.5C 57.5,17.5 57.5,35.5 57.5,53.5C 38.1667,53.5 18.8333,53.5 -0.5,53.5C -0.5,35.5 -0.5,17.5 -0.5,-0.5 Z"/></g>
<g><path style="opacity:1" fill="#f7d17d" d="M 40.5,9.5 C 42.8283,11.3004 45.495,12.467 48.5,13C 49.3366,14.0113 49.67,15.1779 49.5,16.5C 48.7777,15.4489 47.7777,14.7822 46.5,14.5C 45.0527,13.1148 44.0527,13.4482 43.5,15.5C 43.1667,15.5 42.8333,15.5 42.5,15.5C 42.2624,13.5956 41.2624,12.2623 39.5,11.5C 39.3284,10.5084 39.6618,9.84171 40.5,9.5 Z"/></g>
<g><path style="opacity:1" fill="#b49966" d="M 39.5,11.5 C 41.2624,12.2623 42.2624,13.5956 42.5,15.5C 41.6618,15.8417 41.3284,16.5084 41.5,17.5C 39.9373,16.0552 38.604,14.3885 37.5,12.5C 37.8417,11.6618 38.5084,11.3284 39.5,11.5 Z"/></g>
<g><path style="opacity:1" fill="#bc9950" d="M 28.5,10.5 C 29.5521,12.256 31.2188,12.9227 33.5,12.5C 34.4013,13.2905 35.0679,14.2905 35.5,15.5C 34.8333,15.5 34.1667,15.5 33.5,15.5C 33.1667,15.5 32.8333,15.5 32.5,15.5C 32.5,15.1667 32.5,14.8333 32.5,14.5C 30.1561,14.0603 28.1561,13.0603 26.5,11.5C 27.1667,11.1667 27.8333,10.8333 28.5,10.5 Z"/></g>
<g><path style="opacity:1" fill="#37536e" d="M 12.5,7.5 C 13.4916,7.32842 14.1583,7.66175 14.5,8.5C 12.8009,10.5664 11.4676,12.8997 10.5,15.5C 9.66175,15.1583 9.32842,14.4916 9.5,13.5C 9.5,12.1667 9.5,10.8333 9.5,9.5C 9.97306,8.09368 10.9731,7.42702 12.5,7.5 Z"/></g>
<g><path style="opacity:1" fill="#a19c8e" d="M 21.5,3.5 C 22.4916,3.32842 23.1583,3.66175 23.5,4.5C 22.8333,4.5 22.5,4.83333 22.5,5.5C 20.7376,6.26231 19.7376,7.59565 19.5,9.5C 17.8958,10.287 17.2291,11.6203 17.5,13.5C 17.8543,16.4935 16.8543,17.4935 14.5,16.5C 14.6775,15.3052 15.0109,14.1385 15.5,13C 15.0946,12.0546 14.428,11.3879 13.5,11C 14.3805,10.2917 15.0472,9.45837 15.5,8.5C 17.8693,7.31001 19.8693,5.64335 21.5,3.5 Z"/></g>
<g><path style="opacity:1" fill="#dac48b" d="M 37.5,6.5 C 38.6935,7.27187 39.6935,8.27187 40.5,9.5C 39.6618,9.84171 39.3284,10.5084 39.5,11.5C 38.5084,11.3284 37.8417,11.6618 37.5,12.5C 36.5,12.1667 35.8333,11.5 35.5,10.5C 32.488,7.63141 33.1547,6.29808 37.5,6.5 Z"/></g>
<g><path style="opacity:1" fill="#e6cca6" d="M 35.5,10.5 C 35.8333,11.5 36.5,12.1667 37.5,12.5C 38.604,14.3885 39.9373,16.0552 41.5,17.5C 41.5,18.1667 41.5,18.8333 41.5,19.5C 39.2279,18.5589 37.2279,17.2255 35.5,15.5C 35.0679,14.2905 34.4013,13.2905 33.5,12.5C 32.4154,10.4131 30.7488,9.07978 28.5,8.5C 26.5853,8.21552 24.9187,8.54885 23.5,9.5C 20.796,9.66957 19.1293,11.0029 18.5,13.5C 18.1667,13.5 17.8333,13.5 17.5,13.5C 17.2291,11.6203 17.8958,10.287 19.5,9.5C 22.5919,6.64512 26.2586,5.81179 30.5,7C 31.7893,8.80216 33.4559,9.96882 35.5,10.5 Z"/></g>
<g><path style="opacity:1" fill="#e6b562" d="M 28.5,8.5 C 30.7488,9.07978 32.4154,10.4131 33.5,12.5C 31.2188,12.9227 29.5521,12.256 28.5,10.5C 28.5,9.83333 28.5,9.16667 28.5,8.5 Z"/></g>
<g><path style="opacity:1" fill="#a4b186" d="M 28.5,8.5 C 28.5,9.16667 28.5,9.83333 28.5,10.5C 27.8333,10.8333 27.1667,11.1667 26.5,11.5C 25.2905,11.0679 24.2905,10.4013 23.5,9.5C 24.9187,8.54885 26.5853,8.21552 28.5,8.5 Z"/></g>
<g><path style="opacity:1" fill="#eae0ae" d="M 38.5,5.5 C 40.5,6.16667 42.5,6.83333 44.5,7.5C 47.5497,9.54906 49.883,12.2157 51.5,15.5C 51.5,15.8333 51.5,16.1667 51.5,16.5C 51.1667,16.5 50.8333,16.5 50.5,16.5C 50.1667,16.5 49.8333,16.5 49.5,16.5C 49.67,15.1779 49.3366,14.0113 48.5,13C 45.495,12.467 42.8283,11.3004 40.5,9.5C 39.6935,8.27187 38.6935,7.27187 37.5,6.5C 38.1667,6.5 38.5,6.16667 38.5,5.5 Z"/></g>
<g><path style="opacity:1" fill="#bbc5a6" d="M 22.5,5.5 C 27.8333,5.5 33.1667,5.5 38.5,5.5C 38.5,6.16667 38.1667,6.5 37.5,6.5C 33.1547,6.29808 32.488,7.63141 35.5,10.5C 33.4559,9.96882 31.7893,8.80216 30.5,7C 26.2586,5.81179 22.5919,6.64512 19.5,9.5C 19.7376,7.59565 20.7376,6.26231 22.5,5.5 Z"/></g>
<g><path style="opacity:1" fill="#687a8e" d="M 24.5,1.5 C 23.5,2.16667 22.5,2.83333 21.5,3.5C 19.8693,5.64335 17.8693,7.31001 15.5,8.5C 15.1667,8.5 14.8333,8.5 14.5,8.5C 14.1583,7.66175 13.4916,7.32842 12.5,7.5C 15.3787,3.41971 19.3787,1.41971 24.5,1.5 Z"/></g>
<g><path style="opacity:1" fill="#accfc0" d="M 34.5,2.5 C 38.4314,3.13224 41.7647,4.79891 44.5,7.5C 42.5,6.83333 40.5,6.16667 38.5,5.5C 33.1667,5.5 27.8333,5.5 22.5,5.5C 22.5,4.83333 22.8333,4.5 23.5,4.5C 28.7453,4.83218 32.4119,4.16551 34.5,2.5 Z"/></g>
<g><path style="opacity:1" fill="#82acb7" d="M 24.5,1.5 C 28.0419,1.18723 31.3752,1.52056 34.5,2.5C 32.4119,4.16551 28.7453,4.83218 23.5,4.5C 23.1583,3.66175 22.4916,3.32842 21.5,3.5C 22.5,2.83333 23.5,2.16667 24.5,1.5 Z"/></g>
<g><path style="opacity:1" fill="#806b34" d="M 23.5,9.5 C 24.2905,10.4013 25.2905,11.0679 26.5,11.5C 28.1561,13.0603 30.1561,14.0603 32.5,14.5C 27.9515,14.6245 23.6181,15.2911 19.5,16.5C 18.596,15.791 18.2627,14.791 18.5,13.5C 19.1293,11.0029 20.796,9.66957 23.5,9.5 Z"/></g>
<g><path style="opacity:1" fill="#f8bd3e" d="M 46.5,14.5 C 45.8333,15.1667 45.1667,15.8333 44.5,16.5C 43.8333,16.5 43.5,16.1667 43.5,15.5C 44.0527,13.4482 45.0527,13.1148 46.5,14.5 Z"/></g>
<g><path style="opacity:1" fill="#686b62" d="M 14.5,8.5 C 14.8333,8.5 15.1667,8.5 15.5,8.5C 15.0472,9.45837 14.3805,10.2917 13.5,11C 14.428,11.3879 15.0946,12.0546 15.5,13C 15.0109,14.1385 14.6775,15.3052 14.5,16.5C 13.5084,16.3284 12.8417,16.6618 12.5,17.5C 11.5,17.1667 10.8333,16.5 10.5,15.5C 11.4676,12.8997 12.8009,10.5664 14.5,8.5 Z"/></g>
<g><path style="opacity:1" fill="#40633d" d="M 32.5,14.5 C 32.5,14.8333 32.5,15.1667 32.5,15.5C 31.8333,15.5 31.1667,15.5 30.5,15.5C 26.8835,15.8993 23.5502,16.8993 20.5,18.5C 20.1667,18.5 19.8333,18.5 19.5,18.5C 19.1667,18.5 18.8333,18.5 18.5,18.5C 18.8333,17.8333 19.1667,17.1667 19.5,16.5C 23.6181,15.2911 27.9515,14.6245 32.5,14.5 Z"/></g>
<g><path style="opacity:1" fill="#285e59" d="M 30.5,15.5 C 30.4729,17.1993 29.8062,18.5326 28.5,19.5C 27.7784,19.0825 27.2784,18.4158 27,17.5C 26.3292,18.2524 25.4959,18.5858 24.5,18.5C 23.1667,18.5 21.8333,18.5 20.5,18.5C 23.5502,16.8993 26.8835,15.8993 30.5,15.5 Z"/></g>
<g><path style="opacity:1" fill="#ec9543" d="M 46.5,14.5 C 47.7777,14.7822 48.7777,15.4489 49.5,16.5C 49.0269,17.9063 48.0269,18.573 46.5,18.5C 46.1667,18.5 45.8333,18.5 45.5,18.5C 45.1667,17.8333 44.8333,17.1667 44.5,16.5C 45.1667,15.8333 45.8333,15.1667 46.5,14.5 Z"/></g>
<g><path style="opacity:1" fill="#867155" d="M 17.5,13.5 C 17.8333,13.5 18.1667,13.5 18.5,13.5C 18.2627,14.791 18.596,15.791 19.5,16.5C 19.1667,17.1667 18.8333,17.8333 18.5,18.5C 18.552,20.9029 18.2186,23.2362 17.5,25.5C 16.7321,26.2625 16.2321,27.2625 16,28.5C 15.6012,28.2716 15.4346,27.9382 15.5,27.5C 15.8893,24.4467 15.2227,21.78 13.5,19.5C 13.6716,18.5084 13.3382,17.8417 12.5,17.5C 12.8417,16.6618 13.5084,16.3284 14.5,16.5C 16.8543,17.4935 17.8543,16.4935 17.5,13.5 Z"/></g>
<g><path style="opacity:1" fill="#a05740" d="M 42.5,15.5 C 42.8333,15.5 43.1667,15.5 43.5,15.5C 43.5,16.1667 43.8333,16.5 44.5,16.5C 44.8333,17.1667 45.1667,17.8333 45.5,18.5C 44.8333,18.5 44.5,18.8333 44.5,19.5C 43.5,18.8333 42.5,18.1667 41.5,17.5C 41.3284,16.5084 41.6618,15.8417 42.5,15.5 Z"/></g>
<g><path style="opacity:1" fill="#04162a" d="M 9.5,9.5 C 9.5,10.8333 9.5,12.1667 9.5,13.5C 8.53862,15.2646 8.20528,17.2646 8.5,19.5C 8.5,19.8333 8.5,20.1667 8.5,20.5C 7.83333,20.5 7.5,20.8333 7.5,21.5C 6.77842,21.0825 6.27842,20.4158 6,19.5C 4.64631,23.3628 4.14631,27.3628 4.5,31.5C 2.40925,23.412 4.07591,16.0786 9.5,9.5 Z"/></g>
<g><path style="opacity:1" fill="#234946" d="M 9.5,13.5 C 9.32842,14.4916 9.66175,15.1583 10.5,15.5C 10.8333,16.5 11.5,17.1667 12.5,17.5C 13.3382,17.8417 13.6716,18.5084 13.5,19.5C 12.1418,19.8222 10.4752,19.8222 8.5,19.5C 8.20528,17.2646 8.53862,15.2646 9.5,13.5 Z"/></g>
<g><path style="opacity:1" fill="#52553a" d="M 8.5,20.5 C 8.5,20.1667 8.5,19.8333 8.5,19.5C 10.4752,19.8222 12.1418,19.8222 13.5,19.5C 15.2227,21.78 15.8893,24.4467 15.5,27.5C 14.596,26.791 14.2627,25.791 14.5,24.5C 14.106,22.2901 12.7727,20.9568 10.5,20.5C 9.83333,20.5 9.16667,20.5 8.5,20.5 Z"/></g>
<g><path style="opacity:1" fill="#d6876a" d="M 49.5,16.5 C 49.8333,16.5 50.1667,16.5 50.5,16.5C 50.5,18.5 50.5,20.5 50.5,22.5C 48.8007,22.4729 47.4674,21.8062 46.5,20.5C 46.5,19.8333 46.5,19.1667 46.5,18.5C 48.0269,18.573 49.0269,17.9063 49.5,16.5 Z"/></g>
<g><path style="opacity:1" fill="#070615" d="M 7.5,21.5 C 6.49617,23.4924 5.82951,25.6591 5.5,28C 5.95995,32.0766 7.12661,35.91 9,39.5C 14.2382,43.8152 20.2382,46.8152 27,48.5C 28.0698,48.472 28.9032,48.1386 29.5,47.5C 31.5786,47.9707 33.5786,48.6373 35.5,49.5C 35.1583,50.3382 34.4916,50.6716 33.5,50.5C 28.9903,49.659 24.3236,48.9924 19.5,48.5C 16.2307,48.1156 13.3974,46.7823 11,44.5C 7.76226,40.6912 5.5956,36.3579 4.5,31.5C 4.14631,27.3628 4.64631,23.3628 6,19.5C 6.27842,20.4158 6.77842,21.0825 7.5,21.5 Z"/></g>
<g><path style="opacity:1" fill="#714a42" d="M 30.5,20.5 C 31.4916,20.3284 32.1583,20.6618 32.5,21.5C 32.5,21.8333 32.5,22.1667 32.5,22.5C 31.1667,22.5 30.5,21.8333 30.5,20.5 Z"/></g>
<g><path style="opacity:1" fill="#b2946b" d="M 36.5,21.5 C 36.5,22.1667 36.5,22.8333 36.5,23.5C 35.2921,22.7659 33.9587,22.4326 32.5,22.5C 32.5,22.1667 32.5,21.8333 32.5,21.5C 34.035,20.6457 35.3684,20.6457 36.5,21.5 Z"/></g>
<g><path style="opacity:1" fill="#a0aa88" d="M 36.5,21.5 C 39.1367,23.4818 40.47,26.1485 40.5,29.5C 39.6618,29.1583 39.3284,28.4916 39.5,27.5C 39.1667,26.5 38.5,25.8333 37.5,25.5C 37.1667,24.8333 36.8333,24.1667 36.5,23.5C 36.5,22.8333 36.5,22.1667 36.5,21.5 Z"/></g>
<g><path style="opacity:1" fill="#b7ae8e" d="M 33.5,15.5 C 34.1667,15.5 34.8333,15.5 35.5,15.5C 37.2279,17.2255 39.2279,18.5589 41.5,19.5C 42.8571,20.5903 43.8571,21.9236 44.5,23.5C 45.2178,25.1368 45.3845,26.8034 45,28.5C 44.2904,27.0267 43.1238,26.3601 41.5,26.5C 40.0412,21.9003 37.3745,18.2337 33.5,15.5 Z"/></g>
<g><path style="opacity:1" fill="#a27e5f" d="M 41.5,17.5 C 42.5,18.1667 43.5,18.8333 44.5,19.5C 44.5,20.8333 44.5,22.1667 44.5,23.5C 43.8571,21.9236 42.8571,20.5903 41.5,19.5C 41.5,18.8333 41.5,18.1667 41.5,17.5 Z"/></g>
<g><path style="opacity:1" fill="#665257" d="M 45.5,18.5 C 45.8333,18.5 46.1667,18.5 46.5,18.5C 46.5,19.1667 46.5,19.8333 46.5,20.5C 46.3915,22.5138 47.0582,24.1805 48.5,25.5C 46.9382,25.2671 45.6049,24.6005 44.5,23.5C 44.5,22.1667 44.5,20.8333 44.5,19.5C 44.5,18.8333 44.8333,18.5 45.5,18.5 Z"/></g>
<g><path style="opacity:1" fill="#a55662" d="M 50.5,16.5 C 50.8333,16.5 51.1667,16.5 51.5,16.5C 51.9515,20.104 50.9515,23.104 48.5,25.5C 47.0582,24.1805 46.3915,22.5138 46.5,20.5C 47.4674,21.8062 48.8007,22.4729 50.5,22.5C 50.5,20.5 50.5,18.5 50.5,16.5 Z"/></g>
<g><path style="opacity:1" fill="#957f99" d="M 51.5,15.5 C 52.3382,15.8417 52.6716,16.5084 52.5,17.5C 52.5,18.8333 52.5,20.1667 52.5,21.5C 52.5,23.1667 52.5,24.8333 52.5,26.5C 51.2976,25.5946 49.9643,25.5946 48.5,26.5C 48.5,26.1667 48.5,25.8333 48.5,25.5C 50.9515,23.104 51.9515,20.104 51.5,16.5C 51.5,16.1667 51.5,15.8333 51.5,15.5 Z"/></g>
<g><path style="opacity:1" fill="#6b3820" d="M 32.5,22.5 C 33.9587,22.4326 35.2921,22.7659 36.5,23.5C 36.8333,24.1667 37.1667,24.8333 37.5,25.5C 35.7659,24.438 34.0992,24.438 32.5,25.5C 32.5,25.1667 32.5,24.8333 32.5,24.5C 32.5,24.1667 32.5,23.8333 32.5,23.5C 32.5,23.1667 32.5,22.8333 32.5,22.5 Z"/></g>
<g><path style="opacity:1" fill="#5d4725" d="M 10.5,20.5 C 12.7727,20.9568 14.106,22.2901 14.5,24.5C 12.2893,26.4945 11.9559,28.8279 13.5,31.5C 11.5869,28.665 10.5869,25.3317 10.5,21.5C 10.5,21.1667 10.5,20.8333 10.5,20.5 Z"/></g>
<g><path style="opacity:1" fill="#58665c" d="M 18.5,18.5 C 18.8333,18.5 19.1667,18.5 19.5,18.5C 19.6641,21.1873 19.4974,23.854 19,26.5C 18.6174,25.944 18.1174,25.6107 17.5,25.5C 18.2186,23.2362 18.552,20.9029 18.5,18.5 Z"/></g>
<g><path style="opacity:1" fill="#0a1927" d="M 20.5,18.5 C 21.8333,18.5 23.1667,18.5 24.5,18.5C 25.7465,21.0396 26.7465,23.7062 27.5,26.5C 28.1835,26.8627 28.8501,27.1961 29.5,27.5C 31.9181,30.5469 34.9181,32.8802 38.5,34.5C 38.5,35.8333 39.1667,36.5 40.5,36.5C 40.5,37.1667 40.8333,37.5 41.5,37.5C 41.7678,39.099 41.4345,40.4324 40.5,41.5C 37.8411,39.5543 35.1744,37.5543 32.5,35.5C 31.0697,34.4625 29.403,33.7959 27.5,33.5C 27.1658,28.2391 25.1658,27.0725 21.5,30C 22.5707,30.8518 23.5707,31.6851 24.5,32.5C 24.5,33.5 24.5,34.5 24.5,35.5C 23.1667,35.5 21.8333,35.5 20.5,35.5C 20.1667,35.5 19.8333,35.5 19.5,35.5C 19.9068,29.8387 20.2401,24.172 20.5,18.5 Z"/></g>
<g><path style="opacity:1" fill="#1a3445" d="M 28.5,19.5 C 29.4916,19.3284 30.1583,19.6618 30.5,20.5C 30.5,21.8333 31.1667,22.5 32.5,22.5C 32.5,22.8333 32.5,23.1667 32.5,23.5C 30.0882,23.6941 29.0882,25.0274 29.5,27.5C 28.8501,27.1961 28.1835,26.8627 27.5,26.5C 26.7465,23.7062 25.7465,21.0396 24.5,18.5C 25.4959,18.5858 26.3292,18.2524 27,17.5C 27.2784,18.4158 27.7784,19.0825 28.5,19.5 Z"/></g>
<g><path style="opacity:1" fill="#050405" d="M 8.5,20.5 C 9.16667,20.5 9.83333,20.5 10.5,20.5C 10.5,20.8333 10.5,21.1667 10.5,21.5C 7.5952,27.7756 9.42854,32.7756 16,36.5C 17.87,38.4053 19.37,40.5719 20.5,43C 22.4517,43.3661 24.1184,44.1995 25.5,45.5C 26.9952,45.9887 28.3285,46.6554 29.5,47.5C 28.9032,48.1386 28.0698,48.472 27,48.5C 20.2382,46.8152 14.2382,43.8152 9,39.5C 7.12661,35.91 5.95995,32.0766 5.5,28C 5.82951,25.6591 6.49617,23.4924 7.5,21.5C 7.5,20.8333 7.83333,20.5 8.5,20.5 Z"/></g>
<g><path style="opacity:1" fill="#896226" d="M 37.5,25.5 C 38.5,25.8333 39.1667,26.5 39.5,27.5C 38.5041,27.4142 37.6708,27.7476 37,28.5C 36.6458,26.1925 35.6458,25.8592 34,27.5C 32.9701,27.1639 32.4701,26.4972 32.5,25.5C 34.0992,24.438 35.7659,24.438 37.5,25.5 Z"/></g>
<g><path style="opacity:1" fill="#233f43" d="M 19.5,18.5 C 19.8333,18.5 20.1667,18.5 20.5,18.5C 20.2401,24.172 19.9068,29.8387 19.5,35.5C 17.9886,32.4557 17.322,29.1224 17.5,25.5C 18.1174,25.6107 18.6174,25.944 19,26.5C 19.4974,23.854 19.6641,21.1873 19.5,18.5 Z"/></g>
<g><path style="opacity:1" fill="#8d8f77" d="M 44.5,23.5 C 45.6049,24.6005 46.9382,25.2671 48.5,25.5C 48.5,25.8333 48.5,26.1667 48.5,26.5C 48.5,27.1667 48.5,27.8333 48.5,28.5C 48.8432,30.4832 48.1765,31.8166 46.5,32.5C 45.8166,30.8235 44.4832,30.1568 42.5,30.5C 42.5674,29.0413 42.2341,27.7079 41.5,26.5C 43.1238,26.3601 44.2904,27.0267 45,28.5C 45.3845,26.8034 45.2178,25.1368 44.5,23.5 Z"/></g>
<g><path style="opacity:1" fill="#518171" d="M 30.5,15.5 C 31.1667,15.5 31.8333,15.5 32.5,15.5C 32.8333,15.5 33.1667,15.5 33.5,15.5C 37.3745,18.2337 40.0412,21.9003 41.5,26.5C 42.2341,27.7079 42.5674,29.0413 42.5,30.5C 44.4832,30.1568 45.8166,30.8235 46.5,32.5C 45.1667,31.1667 43.8333,31.1667 42.5,32.5C 42.1667,31.5 41.5,30.8333 40.5,30.5C 40.5,30.1667 40.5,29.8333 40.5,29.5C 40.47,26.1485 39.1367,23.4818 36.5,21.5C 35.3684,20.6457 34.035,20.6457 32.5,21.5C 32.1583,20.6618 31.4916,20.3284 30.5,20.5C 30.1583,19.6618 29.4916,19.3284 28.5,19.5C 29.8062,18.5326 30.4729,17.1993 30.5,15.5 Z"/></g>
<g><path style="opacity:1" fill="#618092" d="M 52.5,26.5 C 52.0876,30.3371 50.7543,31.0038 48.5,28.5C 48.5,27.8333 48.5,27.1667 48.5,26.5C 49.9643,25.5946 51.2976,25.5946 52.5,26.5 Z"/></g>
<g><path style="opacity:1" fill="#4c5a34" d="M 32.5,24.5 C 32.5,24.8333 32.5,25.1667 32.5,25.5C 32.4701,26.4972 32.9701,27.1639 34,27.5C 35.6458,25.8592 36.6458,26.1925 37,28.5C 37.6708,27.7476 38.5041,27.4142 39.5,27.5C 39.3284,28.4916 39.6618,29.1583 40.5,29.5C 40.5,29.8333 40.5,30.1667 40.5,30.5C 37.6097,30.722 34.943,30.0553 32.5,28.5C 31.218,27.0416 31.218,25.7082 32.5,24.5 Z"/></g>
<g><path style="opacity:1" fill="#6e6252" d="M 27.5,33.5 C 27.8333,34.1667 28.1667,34.8333 28.5,35.5C 26.5695,35.2294 25.2362,34.2294 24.5,32.5C 23.5707,31.6851 22.5707,30.8518 21.5,30C 25.1658,27.0725 27.1658,28.2391 27.5,33.5 Z"/></g>
<g><path style="opacity:1" fill="#92a5a1" d="M 52.5,21.5 C 53.841,26.4707 53.5077,31.4707 51.5,36.5C 50.596,35.791 50.2627,34.791 50.5,33.5C 48.901,33.7678 47.5676,33.4345 46.5,32.5C 48.1765,31.8166 48.8432,30.4832 48.5,28.5C 50.7543,31.0038 52.0876,30.3371 52.5,26.5C 52.5,24.8333 52.5,23.1667 52.5,21.5 Z"/></g>
<g><path style="opacity:1" fill="#4a422f" d="M 14.5,24.5 C 14.2627,25.791 14.596,26.791 15.5,27.5C 15.4346,27.9382 15.6012,28.2716 16,28.5C 16.2321,27.2625 16.7321,26.2625 17.5,25.5C 17.322,29.1224 17.9886,32.4557 19.5,35.5C 19.631,36.2389 19.4643,36.9056 19,37.5C 17.8147,35.6228 16.8147,33.6228 16,31.5C 15.2303,30.4019 14.397,30.4019 13.5,31.5C 11.9559,28.8279 12.2893,26.4945 14.5,24.5 Z"/></g>
<g><path style="opacity:1" fill="#143f3f" d="M 32.5,23.5 C 32.5,23.8333 32.5,24.1667 32.5,24.5C 31.218,25.7082 31.218,27.0416 32.5,28.5C 34.943,30.0553 37.6097,30.722 40.5,30.5C 41.5,30.8333 42.1667,31.5 42.5,32.5C 40.901,32.2322 39.5676,32.5655 38.5,33.5C 38.5,33.8333 38.5,34.1667 38.5,34.5C 34.9181,32.8802 31.9181,30.5469 29.5,27.5C 29.0882,25.0274 30.0882,23.6941 32.5,23.5 Z"/></g>
<g><path style="opacity:1" fill="#58807d" d="M 46.5,32.5 C 47.5676,33.4345 48.901,33.7678 50.5,33.5C 50.2627,34.791 50.596,35.791 51.5,36.5C 50.7368,38.3684 49.7368,40.0351 48.5,41.5C 47.8333,40.8333 47.1667,40.1667 46.5,39.5C 49.4563,36.1371 48.4563,34.1371 43.5,33.5C 43.1667,33.5 42.8333,33.5 42.5,33.5C 41.5,33.5 40.5,33.5 39.5,33.5C 39.1667,33.5 38.8333,33.5 38.5,33.5C 39.5676,32.5655 40.901,32.2322 42.5,32.5C 43.8333,31.1667 45.1667,31.1667 46.5,32.5 Z"/></g>
<g><path style="opacity:1" fill="#2c5152" d="M 52.5,17.5 C 53.9908,20.1864 54.6575,23.1864 54.5,26.5C 54.3333,28.5 54.1667,30.5 54,32.5C 53.7996,34.3197 52.9663,35.653 51.5,36.5C 53.5077,31.4707 53.841,26.4707 52.5,21.5C 52.5,20.1667 52.5,18.8333 52.5,17.5 Z"/></g>
<g><path style="opacity:1" fill="#411f1b" d="M 24.5,32.5 C 25.2362,34.2294 26.5695,35.2294 28.5,35.5C 27.5,36.1667 26.5,36.8333 25.5,37.5C 24.6618,37.1583 24.3284,36.4916 24.5,35.5C 24.5,34.5 24.5,33.5 24.5,32.5 Z"/></g>
<g><path style="opacity:1" fill="#815a3e" d="M 38.5,33.5 C 38.8333,33.5 39.1667,33.5 39.5,33.5C 40.1098,34.391 40.4431,35.391 40.5,36.5C 39.1667,36.5 38.5,35.8333 38.5,34.5C 38.5,34.1667 38.5,33.8333 38.5,33.5 Z"/></g>
<g><path style="opacity:1" fill="#d6b37f" d="M 39.5,33.5 C 40.5,33.5 41.5,33.5 42.5,33.5C 42.4431,34.609 42.1098,35.609 41.5,36.5C 41.1667,36.5 40.8333,36.5 40.5,36.5C 40.4431,35.391 40.1098,34.391 39.5,33.5 Z"/></g>
<g><path style="opacity:1" fill="#9bb6ac" d="M 42.5,33.5 C 42.8333,33.5 43.1667,33.5 43.5,33.5C 43.7148,35.1788 43.0481,36.1788 41.5,36.5C 42.1098,35.609 42.4431,34.609 42.5,33.5 Z"/></g>
<g><path style="opacity:1" fill="#9e8f60" d="M 27.5,33.5 C 29.403,33.7959 31.0697,34.4625 32.5,35.5C 33.9418,36.8195 34.6085,38.4862 34.5,40.5C 33.8333,39.8333 33.1667,39.1667 32.5,38.5C 31.205,37.5116 29.8717,36.5116 28.5,35.5C 28.1667,34.8333 27.8333,34.1667 27.5,33.5 Z"/></g>
<g><path style="opacity:1" fill="#67523d" d="M 20.5,35.5 C 21.8333,35.5 23.1667,35.5 24.5,35.5C 24.3284,36.4916 24.6618,37.1583 25.5,37.5C 28.0127,38.2257 28.6793,39.5591 27.5,41.5C 26.7002,39.2591 25.0336,38.2591 22.5,38.5C 22.2178,37.2223 21.5511,36.2223 20.5,35.5 Z"/></g>
<g><path style="opacity:1" fill="#1f5d6a" d="M 43.5,33.5 C 48.4563,34.1371 49.4563,36.1371 46.5,39.5C 45.5084,39.3284 44.8417,39.6618 44.5,40.5C 43.7281,39.3065 42.7281,38.3065 41.5,37.5C 40.8333,37.5 40.5,37.1667 40.5,36.5C 40.8333,36.5 41.1667,36.5 41.5,36.5C 43.0481,36.1788 43.7148,35.1788 43.5,33.5 Z"/></g>
<g><path style="opacity:1" fill="#7b1b0c" d="M 32.5,38.5 C 32.634,40.2915 32.3007,41.9582 31.5,43.5C 29.744,42.4479 29.0773,40.7812 29.5,38.5C 30.5,38.5 31.5,38.5 32.5,38.5 Z"/></g>
<g><path style="opacity:1" fill="#475948" d="M 32.5,35.5 C 35.1744,37.5543 37.8411,39.5543 40.5,41.5C 40.6716,42.4916 40.3382,43.1583 39.5,43.5C 38.5,43.5 37.5,43.5 36.5,43.5C 35.8333,42.5 35.1667,41.5 34.5,40.5C 34.6085,38.4862 33.9418,36.8195 32.5,35.5 Z"/></g>
<g><path style="opacity:1" fill="#231e15" d="M 10.5,21.5 C 10.5869,25.3317 11.5869,28.665 13.5,31.5C 14.397,30.4019 15.2303,30.4019 16,31.5C 16.8147,33.6228 17.8147,35.6228 19,37.5C 19.4643,36.9056 19.631,36.2389 19.5,35.5C 19.8333,35.5 20.1667,35.5 20.5,35.5C 21.5511,36.2223 22.2178,37.2223 22.5,38.5C 22.369,39.2389 22.5357,39.9056 23,40.5C 24.3024,41.0848 25.469,41.7515 26.5,42.5C 25.596,43.209 25.2627,44.209 25.5,45.5C 24.1184,44.1995 22.4517,43.3661 20.5,43C 19.37,40.5719 17.87,38.4053 16,36.5C 9.42854,32.7756 7.5952,27.7756 10.5,21.5 Z"/></g>
<g><path style="opacity:1" fill="#233827" d="M 22.5,38.5 C 25.0336,38.2591 26.7002,39.2591 27.5,41.5C 27.5,42.1667 27.1667,42.5 26.5,42.5C 25.469,41.7515 24.3024,41.0848 23,40.5C 22.5357,39.9056 22.369,39.2389 22.5,38.5 Z"/></g>
<g><path style="opacity:1" fill="#6f6a6d" d="M 44.5,40.5 C 44.8417,39.6618 45.5084,39.3284 46.5,39.5C 47.1667,40.1667 47.8333,40.8333 48.5,41.5C 48.5,42.1667 48.1667,42.5 47.5,42.5C 46.8333,42.5 46.1667,42.5 45.5,42.5C 45.6716,41.5084 45.3382,40.8417 44.5,40.5 Z"/></g>
<g><path style="opacity:1" fill="#864319" d="M 32.5,38.5 C 33.1667,39.1667 33.8333,39.8333 34.5,40.5C 35.1667,41.5 35.8333,42.5 36.5,43.5C 36.5,44.1667 36.5,44.8333 36.5,45.5C 34.4458,45.6347 32.7791,44.968 31.5,43.5C 32.3007,41.9582 32.634,40.2915 32.5,38.5 Z"/></g>
<g><path style="opacity:1" fill="#682616" d="M 28.5,35.5 C 29.8717,36.5116 31.205,37.5116 32.5,38.5C 31.5,38.5 30.5,38.5 29.5,38.5C 29.0773,40.7812 29.744,42.4479 31.5,43.5C 32.7791,44.968 34.4458,45.6347 36.5,45.5C 36.1583,46.3382 35.4916,46.6716 34.5,46.5C 31.194,46.1808 28.5274,44.8475 26.5,42.5C 27.1667,42.5 27.5,42.1667 27.5,41.5C 28.6793,39.5591 28.0127,38.2257 25.5,37.5C 26.5,36.8333 27.5,36.1667 28.5,35.5 Z"/></g>
<g><path style="opacity:1" fill="#274154" d="M 41.5,37.5 C 42.7281,38.3065 43.7281,39.3065 44.5,40.5C 45.3382,40.8417 45.6716,41.5084 45.5,42.5C 44.089,44.539 42.089,45.539 39.5,45.5C 39.5,44.8333 39.5,44.1667 39.5,43.5C 40.3382,43.1583 40.6716,42.4916 40.5,41.5C 41.4345,40.4324 41.7678,39.099 41.5,37.5 Z"/></g>
<g><path style="opacity:1" fill="#73563e" d="M 36.5,43.5 C 37.5,43.5 38.5,43.5 39.5,43.5C 39.5,44.1667 39.5,44.8333 39.5,45.5C 38.7978,46.1157 37.7978,46.1157 36.5,45.5C 36.5,44.8333 36.5,44.1667 36.5,43.5 Z"/></g>
<g><path style="opacity:1" fill="#350d12" d="M 26.5,42.5 C 28.5274,44.8475 31.194,46.1808 34.5,46.5C 35.9187,47.4511 37.5853,47.7845 39.5,47.5C 38.4863,48.6737 37.153,49.3404 35.5,49.5C 33.5786,48.6373 31.5786,47.9707 29.5,47.5C 28.3285,46.6554 26.9952,45.9887 25.5,45.5C 25.2627,44.209 25.596,43.209 26.5,42.5 Z"/></g>
<g><path style="opacity:1" fill="#543034" d="M 45.5,42.5 C 46.1667,42.5 46.8333,42.5 47.5,42.5C 45.4697,45.182 42.803,46.8486 39.5,47.5C 37.5853,47.7845 35.9187,47.4511 34.5,46.5C 35.4916,46.6716 36.1583,46.3382 36.5,45.5C 37.7978,46.1157 38.7978,46.1157 39.5,45.5C 42.089,45.539 44.089,44.539 45.5,42.5 Z"/></g>
<g><path style="opacity:1" fill="#311026" d="M 19.5,48.5 C 24.3236,48.9924 28.9903,49.659 33.5,50.5C 29.4862,50.6655 25.4862,50.4988 21.5,50C 20.5842,49.7216 19.9175,49.2216 19.5,48.5 Z"/></g>
</svg>
